<?xml version="1.0" encoding="UTF-8" standalone="no"?>
<svg
   viewBox="0 0 64 64"
   version="1.1"
   id="svg1"
   xml:space="preserve"
   width="64"
   height="64"
   xmlns="http://www.w3.org/2000/svg"
   xmlns:svg="http://www.w3.org/2000/svg"><defs
     id="defs1" /><rect
     width="64"
     height="64"
     rx="14"
     fill="#6b5bd2"
     id="rect1"
     x="0"
     y="0"
     ry="14" /><circle
     cx="47"
     cy="47"
     r="6"
     fill="#ff7a45"
     id="circle1"
     style="display:none" /><path
     id="ねこ_1_"
     d="m 63.479125,101.81457 c -1.933404,-0.0134 -2.77406,2.47657 -4.084715,3.46089 -0.45184,0.33969 -1.233213,0.74132 -1.797745,1.01424 -1.158441,-0.39149 -2.227154,-0.77656 -2.763379,-1.20758 -0.06462,-0.0534 -0.131386,-0.14954 -0.193874,-0.22912 1.185143,-1.00943 2.521969,-1.9772 3.986443,-2.75109 5.614348,-2.969544 8.973769,-10.248114 8.145397,-11.960944 -0.827839,-1.710682 -4.850066,-0.9464 -6.357266,3.79471 -0.742384,2.32916 -4.26417,3.7883 -7.655103,4.67061 -0.750396,-4.2631 -1.234815,-9.4491 -1.343769,-11.957193 -0.191204,-4.370991 -4.944066,-27.554744 -5.322735,-31.166791 -0.140465,-1.304779 0.02831,-2.634129 0.288408,-3.800579 1.775313,-1.075122 3.971489,-2.53372 6.102505,-4.754464 C 57.043882,42.169591 50.77207,24.877912 49.822459,23.738166 48.870712,22.596816 45.26187,3.0219061 42.98024,3.2136441 40.699144,3.4037801 39.177524,20.31572 39.177524,20.31572 c 0,0 -3.09398,-1.019043 -7.138105,-1.283951 l -0.0064,-0.04646 c -0.111091,0.0048 -0.211499,0.01709 -0.32259,0.02296 -0.109488,-0.0059 -0.2115,-0.01816 -0.320988,-0.02296 l -0.0037,0.04646 c -4.051068,0.264908 -7.145048,1.283951 -7.145048,1.283951 0,0 -1.519484,-16.9119399 -3.800046,-17.1020759 -2.280028,-0.191738 -5.891006,19.3831719 -6.84115,20.5245219 -0.950681,1.139746 -7.2214236,18.431425 -2.660301,23.189093 2.724391,2.840821 5.565212,4.44843 7.46657,5.572688 0.160227,0.955486 0.24034,1.971858 0.134057,2.98289 -0.379204,3.61258 -5.131531,26.796333 -5.322201,31.166794 -0.188,4.372055 -1.519485,16.913009 -3.4208428,18.432489 -0.535691,0.43102 -1.6038701,0.81556 -2.7617758,1.20758 -0.5650668,-0.27345 -1.3448368,-0.67508 -1.7977451,-1.01424 -1.3122572,-0.98485 -2.1502439,-3.47478 -4.0857838,-3.46089 -3.07956,0.0197 -4.9590202,4.38006 -2.7388102,6.32575 2.02366434,1.77852 4.6268164,2.62131 6.8347417,4.11302 1.5157459,1.02653 3.148991,4.00674 4.93285,4.23373 1.518416,0.19014 2.088289,0 3.419774,-0.3792 0.611533,-0.17571 1.504529,-0.75574 2.369221,-1.32668 3.608842,-0.81235 8.572669,-1.86717 10.173869,-1.33523 1.682915,0.56133 4.703725,0.60299 6.174607,0.59071 1.468212,0.0117 4.491158,-0.0299 6.174607,-0.59071 1.6012,-0.53194 6.561289,0.52288 10.172802,1.33523 0.861485,0.57094 1.757153,1.15097 2.36922,1.32668 1.331485,0.3792 1.901358,0.56934 3.420842,0.3792 1.782791,-0.22699 3.4139,-3.2072 4.93285,-4.23373 2.202585,-1.49171 4.810009,-2.3345 6.832072,-4.11302 2.222343,-1.94569 0.341817,-6.30599 -2.740947,-6.32575 z M 21.055336,37.183332 c -1.545121,0 -2.806106,-1.259383 -2.806106,-2.804504 0,-1.546722 1.260985,-2.804503 2.806106,-2.804503 1.546723,0 2.806106,1.257781 2.806106,2.804503 0,1.545121 -1.259383,2.804504 -2.806106,2.804504 z m 17.371258,6.770118 c -0.490828,0.516464 -1.489042,1.150962 -2.711572,1.150962 -0.720487,0 -1.517348,-0.217375 -2.329698,-0.812884 -0.500976,-0.361044 -0.85935,-0.913827 -1.12319,-1.540314 -0.260102,0.626487 -0.61901,1.17927 -1.119451,1.540314 -0.817691,0.595509 -1.614552,0.812884 -2.332369,0.812884 -1.224133,0 -2.219675,-0.634498 -2.710503,-1.150962 -0.259568,-0.270784 -0.251556,-0.703931 0.02083,-0.967771 0.272385,-0.256897 0.702862,-0.249954 0.966702,0.0235 0.151147,0.150079 1.50453,1.437236 3.254207,0.173045 1.012633,-0.730634 1.669563,-3.436865 1.599597,-4.972371 -0.01442,-0.377068 0.04059,-0.715146 0.267579,-0.715146 0.22592,0 0.391488,0.338078 0.375999,0.715146 -0.06729,1.535506 0.589635,4.241203 1.599598,4.972371 1.752347,1.269532 3.107332,-0.02564 3.254206,-0.177852 0.265977,-0.268646 0.699123,-0.271317 0.967771,-0.01335 0.270248,0.262772 0.279862,0.691646 0.0203,0.962429 z m 3.606705,-6.770118 c -1.545654,0 -2.805037,-1.259383 -2.805037,-2.804504 0,-1.546722 1.259383,-2.804503 2.805037,-2.804503 1.540314,0 2.807174,1.257781 2.807174,2.804503 -5.33e-4,1.545121 -1.267394,2.804504 -2.807174,2.804504 z"
     style="fill:#ffffff;fill-opacity:1;stroke-width:0.999997" /></svg>
